<svg width="346" height="351" viewBox="0 0 346 351" fill="none" xmlns="http://www.w3.org/2000/svg">
<path d="M0.400024 -4.12124e-06C0.400032 93.0909 36.8113 182.369 101.624 248.194C166.436 314.02 254.341 351 346 351L346 310.613C264.888 310.613 187.098 277.887 129.743 219.636C72.3878 161.385 40.1661 82.3795 40.1661 -7.19859e-06L0.400024 -4.12124e-06Z" fill="black" fill-opacity="0.05"/>
<path d="M76 -3.21972e-06C76 73.0405 104.446 143.09 155.081 194.737C205.716 246.385 274.391 275.4 346 275.4L346 237.116C284.346 237.116 225.217 212.134 181.621 167.667C138.025 123.199 113.533 62.8871 113.533 -6.12425e-06L76 -3.21972e-06Z" fill="black" fill-opacity="0.05"/>
<path d="M146.2 -2.38259e-06C146.2 54.4224 167.25 106.616 204.72 145.098C242.19 183.581 293.01 205.2 346 205.2L346 172.403C301.479 172.403 258.782 154.239 227.301 121.907C195.82 89.5752 178.134 45.724 178.134 -4.85387e-06L146.2 -2.38259e-06Z" fill="black" fill-opacity="0.05"/>
<path d="M205.599 -1.67426e-06C205.599 37.2364 220.391 72.9476 246.721 99.2777C273.051 125.608 308.763 140.4 345.999 140.4L345.999 108.709C317.168 108.709 289.517 97.2556 269.13 76.8688C248.743 56.4819 237.29 28.8314 237.29 -4.08318e-06L205.599 -1.67426e-06Z" fill="black" fill-opacity="0.05"/>
<path d="M265 -9.65915e-07C265 21.4825 273.534 42.0852 288.724 57.2756C303.915 72.4661 324.517 81 346 81L346 50.8256C332.52 50.8256 319.593 45.4708 310.061 35.9391C300.529 26.4075 295.174 13.4798 295.174 -3.25954e-06L265 -9.65915e-07Z" fill="black" fill-opacity="0.05"/>
</svg>
