<svg width="98" height="22" viewBox="0 0 98 22" fill="none" xmlns="http://www.w3.org/2000/svg">
<path d="M8.52738 16.2627C8.17019 16.1577 7.79198 15.9686 7.41378 15.6954C6.95153 15.3593 6.51029 14.918 6.06906 14.3717C5.64884 13.8255 5.24964 13.1741 4.85043 12.4387C4.47223 11.7033 4.15704 10.9049 3.8839 10.0434C3.58974 9.16098 3.40066 8.32054 3.2956 7.5011C3.19055 6.68167 3.14852 5.92526 3.19055 5.21089C3.23257 4.51752 3.33762 3.88719 3.52672 3.3409C3.63177 3.00473 3.77885 2.68955 3.94694 2.43742C4.052 2.29034 4.15705 2.14326 4.28311 2.01719C4.13604 2.08023 4.00996 2.14326 3.8839 2.2273C3.21154 2.58449 2.62325 3.04674 2.11898 3.59303C1.50966 4.24437 1.00539 4.97977 0.648205 5.77819C0.291016 6.57661 0.0809045 7.43807 0.0178711 8.36256C-0.0451623 9.28705 0.0598728 10.1905 0.312006 11.115C0.606162 12.0605 1.02641 12.8799 1.59371 13.6153C2.16101 14.3507 2.83336 14.939 3.58976 15.4223C4.34616 15.8845 5.18659 16.1997 6.06906 16.3678C6.9095 16.5149 7.72894 16.5149 8.59039 16.3678C8.65343 16.3468 8.73747 16.3468 8.80051 16.3258C8.67444 16.3048 8.61142 16.2838 8.52738 16.2627ZM14.3054 6.72369C14.0113 5.77819 13.591 4.95875 13.0237 4.22336C12.4564 3.48797 11.7841 2.89966 11.0277 2.41641C10.2713 1.95416 9.45186 1.639 8.54838 1.47091C7.66592 1.30282 6.76243 1.32383 5.83794 1.51293C6.27918 1.57597 6.72042 1.76506 7.18266 2.12225C7.64491 2.45843 8.08614 2.89967 8.52738 3.44596C8.96861 3.99225 9.36781 4.64358 9.74601 5.37897C10.1242 6.11436 10.4394 6.91279 10.7125 7.77425C10.9857 8.6357 11.1748 9.47614 11.2798 10.3166C11.3849 11.157 11.4269 11.9134 11.3849 12.6278C11.3429 13.3212 11.2378 13.9515 11.0487 14.4978C10.9016 14.939 10.7125 15.2962 10.5024 15.5904C10.4394 15.6534 10.3974 15.7164 10.3343 15.7795C10.3974 15.7585 10.4814 15.7164 10.5444 15.6744C11.2798 15.3172 11.9312 14.834 12.4985 14.2247C13.1288 13.5733 13.612 12.8379 13.9692 12.0395C14.3264 11.2411 14.5365 10.3796 14.5996 9.45514C14.7046 8.55166 14.5996 7.62717 14.3054 6.72369Z" fill="#334C2C"/>
<path d="M29.3495 2.03821C28.8032 1.51294 28.1519 1.28181 27.3955 1.30282C26.5971 1.36586 25.7986 1.63899 24.9582 2.12225C24.3699 2.45843 23.8026 2.92068 23.2563 3.42494C23.2563 3.42494 25.0633 3.00472 26.513 3.99225C27.1854 4.45449 27.7737 5.16887 28.278 5.92527C29.7698 4.34944 29.7277 2.33237 29.3495 2.03821ZM18.2136 15.9476C18.0666 16.1577 17.8774 16.3468 17.6043 16.4939H23.5925C22.773 16.2207 22.3108 15.5904 22.3108 14.6449V1.55496L17.1841 3.31989C17.6463 3.40393 18.0035 3.59304 18.1926 3.86618C18.4027 4.13933 18.5078 4.53854 18.5078 5.08483V14.834C18.4868 15.2752 18.4027 15.6744 18.2136 15.9476Z" fill="#334C2C"/>
<path d="M33.0052 15.9688C32.8582 16.1789 32.6691 16.347 32.3959 16.4941H37.8798C37.6277 16.347 37.4806 16.1789 37.3545 16.0108C37.1444 15.6957 37.0394 15.2965 37.0394 14.8132V5.98854L37.1234 1.61823L37.0604 1.53418L32.0177 3.17304C32.4379 3.29911 32.7531 3.48822 32.9422 3.76137C33.1523 4.03451 33.2574 4.41271 33.2574 4.93798V14.8132C33.2994 15.2544 33.1943 15.6537 33.0052 15.9688Z" fill="#334C2C"/>
<path d="M58.0717 15.9688C57.9246 16.1789 57.7355 16.347 57.4623 16.4941H62.9462C62.6941 16.347 62.547 16.1789 62.421 16.0108C62.2109 15.6957 62.1058 15.2965 62.1058 14.8132V5.98854L62.1898 1.61823L62.1268 1.53418L57.0841 3.17304C57.5043 3.29911 57.8195 3.48822 58.0086 3.76137C58.2187 4.03451 58.3238 4.41271 58.3238 4.93798V14.8132C58.3448 15.2544 58.2608 15.6537 58.0717 15.9688Z" fill="#334C2C"/>
<path d="M74.7124 16.472H80.3013C79.713 16.1358 79.4188 15.5895 79.4188 14.8331V5.79835C79.4188 4.36959 79.0826 3.25601 78.4103 2.60467C77.7379 1.9113 76.6664 1.32299 75.4478 1.57512C74.2921 1.78523 72.6323 2.81478 71.3506 4.41162V6.05049C73.0105 3.34005 75.6159 1.00782 75.6159 4.81084V14.8121C75.6159 15.5685 75.3217 16.1568 74.7124 16.472Z" fill="#334C2C"/>
<path d="M66.161 14.8125V5.02133C66.161 4.47504 66.0769 4.09684 65.8878 3.8237C65.6987 3.50853 65.3415 3.34044 64.8793 3.23539L70.006 1.49146V9.39165L69.985 14.8125C69.985 15.5689 70.3001 16.1152 70.8044 16.4514H65.2785C65.8668 16.1572 66.161 15.5899 66.161 14.8125Z" fill="#334C2C"/>
<path d="M91.8997 16.2627C91.5425 16.1577 91.1643 15.9686 90.7861 15.6954C90.3238 15.3593 89.8826 14.918 89.4413 14.3717C89.0211 13.8255 88.6009 13.1741 88.2227 12.4387C87.8445 11.7033 87.5294 10.9049 87.2562 10.0434C86.9621 9.16098 86.7729 8.32054 86.6679 7.5011C86.5628 6.68167 86.5208 5.92526 86.5628 5.21089C86.6049 4.51752 86.7099 3.88719 86.899 3.3409C87.0041 3.00473 87.1512 2.68955 87.3193 2.43742L87.2562 2.2273C86.5839 2.58449 85.9956 3.04674 85.4913 3.59303C84.882 4.24437 84.3777 4.97977 84.0205 5.77819C83.6633 6.57661 83.4532 7.43807 83.3902 8.36256C83.3272 9.28705 83.4322 10.1905 83.6843 11.115C83.9785 12.0605 84.3987 12.8799 84.966 13.6153C85.5333 14.3507 86.2057 14.939 86.9621 15.4223C87.7185 15.8845 88.5589 16.1997 89.4413 16.3678C90.2818 16.5149 91.1222 16.5149 91.9627 16.3678C92.0257 16.3468 92.0888 16.3468 92.1728 16.3258C92.0467 16.3048 91.9627 16.2838 91.8997 16.2627ZM97.6778 6.72369C97.3836 5.77819 96.9634 4.95875 96.3961 4.22336C95.8288 3.48797 95.1564 2.89966 94.4 2.41641C93.6436 1.95416 92.8242 1.639 91.9207 1.47091C91.0382 1.30282 90.1347 1.32383 89.2103 1.51293C89.6515 1.57597 90.0927 1.76506 90.5549 2.12225C91.0172 2.45843 91.4585 2.89967 91.8997 3.44596C92.3409 3.99225 92.7401 4.64358 93.1183 5.37897C93.4965 6.11436 93.8117 6.91279 94.0848 7.77425C94.358 8.6357 94.5471 9.47614 94.6521 10.3166C94.7572 11.157 94.7992 11.9134 94.7572 12.6278C94.7152 13.3212 94.6101 13.9515 94.421 14.4978C94.2739 14.939 94.0848 15.2962 93.8747 15.5904C93.8117 15.6534 93.7697 15.7164 93.7066 15.7795C93.7697 15.7585 93.8327 15.7164 93.9167 15.6744C94.6521 15.3172 95.3035 14.834 95.8708 14.2247C96.5011 13.5733 96.9844 12.8379 97.3416 12.0395C97.6987 11.2411 97.9089 10.3796 97.9719 9.45514C98.0559 8.55166 97.9509 7.62717 97.6778 6.72369Z" fill="#334C2C"/>
<path d="M47.7343 21.7471C47.7553 21.7471 48.5118 21.6841 48.5328 21.6841C49.4573 21.558 50.2767 21.3689 50.9911 21.0958C51.3903 20.9277 51.7685 20.7596 52.1257 20.5705C52.8611 20.1713 53.4494 19.688 53.8906 19.1417C54.2898 18.6375 54.584 18.0912 54.731 17.5239C54.8151 17.2087 54.8571 16.8936 54.8571 16.5574C54.8571 15.7379 54.647 15.0446 54.2058 14.5823C53.7435 14.0781 53.1132 13.6999 52.3778 13.4057C51.6004 13.1326 50.6969 12.9014 49.7514 12.7333L49.3102 12.6493L48.8059 12.5653L48.1966 12.4602L45.6543 12.019L43.9524 11.7248L41.1789 11.0945C41.1158 11.1575 40.9057 11.5147 40.8637 11.5567C40.6746 11.8719 40.5906 12.2081 40.5906 12.5653C40.5906 12.6493 40.5906 12.7123 40.6116 12.7964C40.6536 13.0905 40.7797 13.3637 40.9688 13.6368C41.2209 13.952 41.6411 14.2672 42.2715 14.4563L43.385 14.7504L49.1421 15.78C50.2347 15.948 51.0121 16.2422 51.4954 16.6414C51.9996 17.0196 52.2728 17.5659 52.2728 18.2383C52.2728 18.6375 52.2097 18.9947 52.0626 19.3308C51.8315 19.9192 51.3903 20.4024 50.7809 20.7806C50.2347 21.1168 49.1421 21.453 48.2806 21.6421L47.7343 21.7471Z" fill="#334C2C"/>
<path d="M49.3939 6.32359C49.3939 6.5337 49.3729 6.76482 49.3309 6.95392C49.1418 8.0465 48.4695 8.84493 47.671 8.84493C47.1878 8.84493 46.7465 8.55078 46.4314 8.06752C46.1372 7.60528 45.9481 6.99595 45.9481 6.32359C45.9481 5.65123 46.1372 5.02091 46.4314 4.55866C46.7465 4.07541 47.1878 3.78125 47.671 3.78125C48.4695 3.78125 49.1418 4.57967 49.3309 5.67225C49.3729 5.90337 49.3939 6.11348 49.3939 6.32359Z" fill="#BEC296"/>
<path d="M46.8518 5.37919C46.7677 5.4002 46.7467 5.31617 46.7467 5.23212C46.7887 4.91696 47.2089 4.39167 47.5871 4.32863C48.0284 4.2656 47.5871 5.23211 46.8518 5.37919Z" fill="#FFFFFE"/>
<path d="M44.9186 10.1687C44.3093 9.37024 43.6369 8.36171 43.6369 6.72284C43.6369 4.7688 44.8976 3.34005 45.5069 2.56264C45.696 2.3105 45.9692 2.10038 46.2423 1.91128V1.34399C44.7505 1.55411 43.5949 2.01635 42.7124 2.77275C41.4938 3.78128 40.9475 5.08396 40.9475 6.74384C40.9475 7.4162 41.1156 8.08857 41.4098 8.69789L41.5358 9.05507C41.5779 9.13911 43.7 9.76946 44.9186 10.1687Z" fill="#334C2C"/>
<path d="M54.4155 6.76558C54.4155 7.60603 54.1423 8.34142 53.7221 9.07681C52.8186 9.77018 50.6545 10.7577 49.8981 11.0518C49.9401 10.9888 50.0032 10.9258 50.0452 10.8628C50.6335 10.1274 51.7471 8.65658 51.7471 6.72356C51.7471 4.76953 50.5074 3.34077 49.8981 2.58437C49.772 2.41628 49.625 2.2692 49.4569 2.12212V1.23966C50.8436 1.21865 51.516 1.80696 53.2809 0L51.621 2.08011C52.0202 2.26921 52.3564 2.50033 52.6506 2.77347C53.8272 3.80302 54.4155 5.12672 54.4155 6.76558Z" fill="#334C2C"/>
</svg>
