<svg width="20" height="20" viewBox="0 0 20 20" fill="none" xmlns="http://www.w3.org/2000/svg">
<path d="M2.96875 8.20312V8.78906C2.96875 9.88461 3.39539 10.9146 4.17008 11.6893L7.94609 15.4654L8.28426 20H11.7157L12.0539 15.4654L15.8299 11.6893C16.6046 10.9146 17.0312 9.88461 17.0312 8.78906V8.20312H2.96875ZM9.37199 18.8281L9.14551 15.7908H10.8545L10.628 18.8281H9.37199ZM15.0013 10.8607L11.243 14.6189H8.75691L4.99867 10.8607C4.58609 10.4481 4.31176 9.93414 4.19883 9.375H15.8011C15.6882 9.93414 15.4139 10.4481 15.0013 10.8607Z" fill="#59E631"/>
<path d="M10.0001 7.03125C11.3362 7.03125 12.4233 5.94422 12.4233 4.60805C12.4233 4.15582 12.2974 3.71422 12.0593 3.33094L10.0001 0L7.94136 3.33023C7.70292 3.71367 7.5769 4.15555 7.5769 4.60805C7.57694 5.94422 8.66397 7.03125 10.0001 7.03125ZM8.93737 3.94773L10.0001 2.22863L11.0628 3.94773C11.1865 4.1466 11.2514 4.37449 11.2514 4.60809C11.2514 5.29805 10.6901 5.85938 10.0001 5.85938C9.31015 5.85938 8.74882 5.29805 8.74882 4.60805C8.74882 4.37449 8.81374 4.14656 8.93737 3.94773Z" fill="#59E631"/>
</svg>
