<svg width="32" height="32" viewBox="0 0 32 32" fill="none" xmlns="http://www.w3.org/2000/svg">
<g clip-path="url(#clip0_313_161)">
<path d="M21.9419 18.8738C24.6204 16.9958 26.3751 13.886 26.3751 10.3738C26.3751 4.65297 21.7209 -0.0012207 16.0001 -0.0012207C10.2792 -0.0012207 5.62506 4.65297 5.62506 10.3738C5.62506 13.886 7.37975 16.9958 10.0582 18.8738H6.10352e-05V31.9988H32.0001V18.8738H21.9419ZM30.1251 22.6238H16.9376V20.7488H30.1251V22.6238ZM9.40631 26.3738V24.4988H22.5938V26.3738H9.40631ZM1.87506 26.3738V24.4988H7.53131V26.3738H1.87506ZM24.4688 24.4988H30.1251V26.3738H24.4688V24.4988ZM7.50006 10.3738C7.50006 5.68684 11.3131 1.87378 16.0001 1.87378C20.687 1.87378 24.5001 5.68684 24.5001 10.3738C24.5001 15.0607 20.687 18.8738 16.0001 18.8738C11.3131 18.8738 7.50006 15.0607 7.50006 10.3738ZM15.0626 20.7488V22.6238H1.87506V20.7488H15.0626ZM1.87506 28.2488H15.0626V30.1238H1.87506V28.2488ZM16.9376 30.1238V28.2488H30.1251V30.1238H16.9376Z" fill="#59E631"/>
<path d="M16.0001 7.56177C14.4492 7.56177 13.1876 8.82346 13.1876 10.3743C13.1876 11.9251 14.4492 13.1868 16.0001 13.1868C17.5509 13.1868 18.8126 11.9251 18.8126 10.3743C18.8126 8.82346 17.5509 7.56177 16.0001 7.56177ZM16.0001 11.3118C15.4831 11.3118 15.0626 10.8912 15.0626 10.3743C15.0626 9.85733 15.4831 9.43677 16.0001 9.43677C16.517 9.43677 16.9376 9.85733 16.9376 10.3743C16.9376 10.8912 16.517 11.3118 16.0001 11.3118Z" fill="#59E631"/>
</g>
<defs>
<clipPath id="clip0_313_161">
<rect width="32" height="32" fill="white"/>
</clipPath>
</defs>
</svg>
