<svg width="32" height="32" viewBox="0 0 32 32" fill="none" xmlns="http://www.w3.org/2000/svg">
<path d="M30.125 4.6875V0.004125H24.5V4.6875H18.8125V0H13.1875V4.6875H7.5V0H1.875V4.6875H0V10.3125H3.75V13.1875H5.625V10.3125H15.0625V13.1875H16.9375V10.3125H26.375V13.1916H28.25V10.3125H32V4.6875H30.125ZM26.375 1.87912H28.25V4.6875H26.375V1.87912ZM13.1875 6.5625H18.8125V8.4375H13.1875V6.5625ZM11.3125 8.4375H9.375V6.5625H11.3125V8.4375ZM20.6875 6.5625H22.625V8.4375H20.6875V6.5625ZM15.0625 1.875H16.9375V4.6875H15.0625V1.875ZM3.75 1.875H5.625V4.6875H3.75V1.875ZM1.875 6.5625H7.5V8.4375H1.875V6.5625ZM30.125 8.4375H24.5V6.5625H30.125V8.4375Z" fill="#59E631"/>
<path d="M18.8125 20.4036V15.0625H13.1875V20.4036L12.0998 22.0352C11.5847 22.8077 11.3125 23.7069 11.3125 24.6354V32H20.6875V24.6354C20.6875 23.7069 20.4153 22.8078 19.9002 22.0353L18.8125 20.4036ZM16.9375 16.9375V19.75H15.0625V16.9375H16.9375ZM18.8125 30.125H13.1875V24.6354C13.1875 24.0783 13.3508 23.5389 13.6599 23.0754L14.6267 21.625H17.3733L18.3402 23.0754C18.6492 23.5388 18.8126 24.0782 18.8126 24.6354V30.125H18.8125Z" fill="#59E631"/>
<path d="M7.5 20.4036V15.0625H1.875V20.4036L0.787313 22.0352C0.272188 22.8077 0 23.7069 0 24.6354V32H9.375V24.6354C9.375 23.7069 9.10281 22.8078 8.58769 22.0353L7.5 20.4036ZM5.625 16.9375V19.75H3.75V16.9375H5.625ZM7.5 30.125H1.875V24.6354C1.875 24.0783 2.03831 23.5389 2.34737 23.0754L3.31425 21.625H6.06081L7.02769 23.0754C7.33669 23.5388 7.50006 24.0782 7.50006 24.6354L7.5 30.125Z" fill="#59E631"/>
<path d="M30.1251 20.4036V15.0625H24.5001V20.4036L23.4124 22.0352C22.8972 22.8077 22.6251 23.7069 22.6251 24.6354V32H32.0001V24.6354C32.0001 23.7069 31.7279 22.8078 31.2127 22.0353L30.1251 20.4036ZM28.2501 16.9375V19.75H26.3751V16.9375H28.2501ZM30.1251 30.125H24.5001V24.6354C24.5001 24.0783 24.6634 23.5389 24.9724 23.0754L25.9393 21.625H28.6859L29.6527 23.0754C29.9617 23.5388 30.1251 24.0782 30.1251 24.6354V30.125H30.1251Z" fill="#59E631"/>
</svg>
