<svg width="32" height="32" viewBox="0 0 32 32" fill="none" xmlns="http://www.w3.org/2000/svg">
<path d="M29.1875 5.31305C27.6367 5.31305 26.375 6.57474 26.375 8.12555V10.0368C26.0816 9.93274 25.7661 9.87555 25.4375 9.87555C23.8867 9.87555 22.625 11.1372 22.625 12.688V17.2731L16.4329 23.4652C16.2756 23.6225 16.1316 23.7894 16 23.9641C15.8684 23.7894 15.7244 23.6225 15.5671 23.4652L9.375 17.2731V12.688C9.375 11.1372 8.11331 9.87555 6.5625 9.87555C6.23387 9.87555 5.91844 9.93274 5.625 10.0368V8.12555C5.625 6.57474 4.36331 5.31305 2.8125 5.31305C1.26169 5.31305 0 6.57474 0 8.12555V21.533L2.86925 27.3097C3.44544 28.4699 3.75 29.7677 3.75 31.063V32.0005H28.25V31.063C28.25 29.7677 28.5546 28.4699 29.1308 27.3097L32 21.533V8.12555C32 6.57474 30.7384 5.31305 29.1875 5.31305ZM25.4375 11.7505C25.9544 11.7505 26.375 12.1711 26.375 12.688V15.7868C25.7696 15.5738 25.1054 15.5738 24.5 15.7868V12.688C24.5 12.1711 24.9206 11.7505 25.4375 11.7505ZM6.5625 11.7505C7.07944 11.7505 7.5 12.1711 7.5 12.688V15.7851C7.20281 15.6804 6.88694 15.6255 6.5625 15.6255C6.23806 15.6255 5.92212 15.6804 5.625 15.7851V12.688C5.625 12.1711 6.04556 11.7505 6.5625 11.7505ZM4.5485 26.4757L1.875 21.0931V8.12555C1.875 7.60861 2.29556 7.18805 2.8125 7.18805C3.32944 7.18805 3.75 7.60861 3.75 8.12555V18.4693C3.75988 19.179 4.03344 19.8864 4.57375 20.4268L10.2792 26.1322L11.605 24.8064L5.89956 19.101C5.534 18.7355 5.534 18.1407 5.89956 17.7752C6.07669 17.5981 6.31206 17.5005 6.5625 17.5005C6.81287 17.5005 7.04831 17.5981 7.22538 17.7752L14.2413 24.7909C14.7709 25.3206 15.0625 26.0277 15.0625 26.7818V30.1255H5.58169C5.46494 28.8595 5.11363 27.6134 4.5485 26.4757ZM30.125 21.0931L27.4515 26.4757C26.8864 27.6134 26.5351 28.8595 26.4183 30.1255H16.9375L16.9374 26.7818C16.9375 26.0277 17.2292 25.3207 17.7588 24.791L24.7746 17.7751C25.1402 17.4095 25.7349 17.4095 26.1004 17.7751C26.466 18.1407 26.4659 18.7354 26.1004 19.1009L20.395 24.8064L21.7208 26.1322L27.4263 20.4267C27.9666 19.8864 28.2401 19.179 28.2479 18.4692C28.25 18.4693 28.25 8.12555 28.25 8.12555C28.25 7.60861 28.6706 7.18805 29.1875 7.18805C29.7044 7.18805 30.125 7.60861 30.125 8.12555V21.0931Z" fill="#59E631"/>
<path d="M13.0497 10.8242C13.0056 10.8762 12.9619 10.9288 12.9194 10.9834C12.1669 11.951 11.7525 13.2241 11.7525 14.5683C11.7525 15.9124 12.1669 17.1856 12.9194 18.1531C13.7262 19.1903 14.8202 19.7614 16 19.7614C17.1798 19.7614 18.2739 19.1903 19.0806 18.1531C19.8331 17.1856 20.2475 15.9124 20.2475 14.5683C20.2475 13.2241 19.8331 11.951 19.0806 10.9834C19.0381 10.9288 18.9944 10.8763 18.9503 10.8242C20.5748 10.3425 22.0629 9.46188 23.2936 8.23113C25.2404 6.28438 26.3125 3.69413 26.3125 0.9375V0H25.375C22.6184 0 20.0281 1.07212 18.0814 3.01888C17.2034 3.89681 16.5041 4.90594 16 6.00188C15.4959 4.90594 14.7966 3.89681 13.9186 3.01888C11.9719 1.07212 9.38162 0 6.625 0H5.6875V0.9375C5.6875 3.69413 6.75963 6.28438 8.70638 8.23113C9.93713 9.46181 11.4251 10.3425 13.0497 10.8242ZM16 17.8865C14.7139 17.8865 13.6275 16.3669 13.6275 14.5683C13.6275 12.7696 14.7139 11.25 16 11.25C17.286 11.25 18.3725 12.7696 18.3725 14.5683C18.3725 16.3669 17.286 17.8865 16 17.8865ZM24.3791 1.93344C23.9235 5.79181 20.8543 8.861 16.9959 9.31656C17.4515 5.45819 20.5206 2.389 24.3791 1.93344ZM15.0041 9.31656C11.1457 8.861 8.0765 5.79181 7.62094 1.93344C11.4793 2.389 14.5485 5.45819 15.0041 9.31656Z" fill="#59E631"/>
</svg>
