<svg width="24" height="32" viewBox="0 0 24 32" fill="none" xmlns="http://www.w3.org/2000/svg">
<path d="M0.75 13.125V14.0625C0.75 15.8154 1.43262 17.4634 2.67212 18.7029L8.71375 24.7446L9.25481 32H14.7452L15.2862 24.7446L21.3279 18.7029C22.5674 17.4634 23.25 15.8154 23.25 14.0625V13.125H0.75ZM10.9952 30.125L10.6328 25.2652H13.3673L13.0048 30.125H10.9952ZM20.0021 17.3771L13.9889 23.3902H10.0111L3.99788 17.3771C3.33775 16.7169 2.89881 15.8946 2.71812 15H21.2817C21.1012 15.8946 20.6622 16.7169 20.0021 17.3771Z" fill="#38FF00"/>
<path d="M12 11.25C14.1378 11.25 15.8771 9.51075 15.8771 7.37288C15.8771 6.64931 15.6757 5.94275 15.2947 5.3295L12 0L8.70599 5.32837C8.32449 5.94187 8.12286 6.64888 8.12286 7.37288C8.12293 9.51075 9.86218 11.25 12 11.25ZM10.2996 6.31637L12 3.56581L13.7004 6.31637C13.8982 6.63456 14.0021 6.99919 14.0021 7.37294C14.0021 8.47688 13.1039 9.375 12 9.375C10.8961 9.375 9.99793 8.47688 9.99793 7.37288C9.99793 6.99919 10.1018 6.6345 10.2996 6.31637Z" fill="#38FF00"/>
</svg>
